<svg xmlns="http://www.w3.org/2000/svg" viewBox="0 0 290.98 87.17"><defs><style>.cls-1,.cls-2{fill:#f9a024;}.cls-2{fill-rule:evenodd;}.cls-3{fill:#231f20;}</style></defs><g id="Layer_2" data-name="Layer 2"><g id="Layer_1-2" data-name="Layer 1"><path class="cls-1" d="M37.91,3.69h0a40.3,40.3,0,0,1,46,39.88c0,.69,0,1.38-.05,2.07a2.43,2.43,0,0,0,3.3.08c0-.71,0-1.43,0-2.15A43.59,43.59,0,0,0,37.54.42C37.73.6,39.72,2.58,37.91,3.69Z"/><path class="cls-1" d="M12.08,68.69A40.29,40.29,0,0,1,24,8.36l-.33.18A2.44,2.44,0,0,0,22,5.72a43.6,43.6,0,0,0-12.54,65C9.48,70.48,10.18,67.7,12.08,68.69Z"/><path class="cls-1" d="M84.94,38A28.76,28.76,0,0,0,79,29.18,31.26,31.26,0,0,0,72.23,24c-.14,0-1-.21-1.19-.09a1,1,0,0,0,0,1.33c.52.41,5.3,2.53,8.3,7.33s5.87,11.28,5.76,13.32Z"/><path class="cls-1" d="M16,13a30.31,30.31,0,0,0-3,10.5,32.59,32.59,0,0,0,.45,8.76c.07.11.49,1,.7,1s1-.21,1-.9-1.47-5.86.27-11.4,4.92-12.1,6.56-13.37Z"/><path class="cls-1" d="M31.2,83A31.73,31.73,0,0,0,42,81.89a32,32,0,0,0,7.86-3.47c.08-.11.67-.77.64-1a1,1,0,0,0-1.23-.57c-.62.25-4.79,3.36-10.55,3.76s-13.08,0-14.9-1.06Z"/><path class="cls-2" d="M72.28,23.61a4,4,0,1,1-4-4A4,4,0,0,1,72.28,23.61Zm-2.15,0a1.89,1.89,0,1,1-1.89-1.88A1.89,1.89,0,0,1,70.13,23.61Z"/><path class="cls-2" d="M55.23,74.42a4,4,0,1,1-4-4A4,4,0,0,1,55.23,74.42Zm-2.15,0a1.89,1.89,0,1,1-1.89-1.89A1.89,1.89,0,0,1,53.08,74.42Z"/><path class="cls-2" d="M19.64,34.94a4,4,0,1,1-4-4A4,4,0,0,1,19.64,34.94Zm-2.15,0a1.89,1.89,0,1,1-1.89-1.89A1.89,1.89,0,0,1,17.49,34.94Z"/><path class="cls-2" d="M88.6,53.09a4,4,0,1,1-4-4A4,4,0,0,1,88.6,53.09Zm-2.15,0a1.89,1.89,0,1,1-1.89-1.89A1.88,1.88,0,0,1,86.45,53.09Z"/><path class="cls-2" d="M34.05,5a4,4,0,1,1-4-4A4,4,0,0,1,34.05,5ZM31.9,5A1.89,1.89,0,1,1,30,3.14,1.89,1.89,0,0,1,31.9,5Z"/><path class="cls-2" d="M19.73,76.57a4,4,0,1,1-4-4A4,4,0,0,1,19.73,76.57Zm-2.15,0a1.89,1.89,0,1,1-1.89-1.89A1.89,1.89,0,0,1,17.58,76.57Z"/><path class="cls-1" d="M21.9,81.4l0,0Z"/><path class="cls-1" d="M82.75,53.06c-.25,1-.54,2-.87,3l0,0C82.19,55.23,82.47,54.2,82.75,53.06Z"/><path class="cls-1" d="M80.29,60.26v0A40.3,40.3,0,0,1,23.38,78.44l.09.06a2.43,2.43,0,0,0-1.56,2.9A43.59,43.59,0,0,0,83.24,61.71S80.3,62.41,80.29,60.26Z"/><path class="cls-1" d="M28.54,34.93l11,27.34h9.76L61.46,32.12a1,1,0,0,1,1.77.71L50.87,63.52a1,1,0,0,1-.92.67h-11a1,1,0,0,1-.89-.6L26.77,35.66A2.36,2.36,0,0,1,25.22,35h0a2.31,2.31,0,0,1,0-3.27h0a2.31,2.31,0,0,1,3.27,0h0a2.31,2.31,0,0,1,.05,3.22Zm-1.13-2.14h0a.78.78,0,0,0-1.11,0,.78.78,0,0,0-.22.55.76.76,0,0,0,.22.55h0a.79.79,0,0,0,.56.22.75.75,0,0,0,.55-.23.77.77,0,0,0,.23-.55.79.79,0,0,0-.23-.55Z"/><path class="cls-1" d="M64,26.16a2.31,2.31,0,0,1,1.63.68h0a2.31,2.31,0,1,1-3.27,3.27h0a2.36,2.36,0,0,1-.47-.68H51.91L45.43,48.16a1,1,0,0,1-1.8,0L37.15,29.43H24.91a1,1,0,0,1,0-1.92H37.82a1,1,0,0,1,.91.64l5.8,16.77L50.3,28.25a1,1,0,0,1,.94-.74H61.85a2.45,2.45,0,0,1,.47-.67h0A2.31,2.31,0,0,1,64,26.16Zm.55,1.76h0a.78.78,0,0,0-1.11,0,.78.78,0,0,0-.22.55.73.73,0,0,0,.23.55h0a.79.79,0,0,0,.56.22.75.75,0,0,0,.55-.23.77.77,0,0,0,.23-.55.79.79,0,0,0-.23-.55Z"/><path class="cls-3" d="M107.29,47.94,97.8,23.06h9.66l2.65,9A28.21,28.21,0,0,1,111.34,38h.17a35.36,35.36,0,0,1,1.29-5.68l2.79-9.21h9.49l-9.46,24.88Z"/><path class="cls-3" d="M148.89,47.94l-1.07-9.86c-.22-1.82-.35-3.34-.39-4.55a36.45,36.45,0,0,1-1.11,4.84l-2.85,9.57h-5.32l-2.86-9.57a38.29,38.29,0,0,1-1.12-4.84c-.06,1-.19,2.54-.37,4.55l-1.09,9.86h-8.77l4.25-24.88h9.23l1.77,6.15c0,.07.1.36.23.87a42.87,42.87,0,0,1,1.4,6.41H141a45,45,0,0,1,1.72-7.38l1.83-6.05h9.23l3.94,24.88Z"/><path class="cls-3" d="M185.84,35.55a12.85,12.85,0,0,1-1,5.08A13.24,13.24,0,0,1,182,44.85a13.89,13.89,0,0,1-19,0,12.41,12.41,0,0,1-3.76-9.26A12.54,12.54,0,0,1,163,26.22a14,14,0,0,1,19,0A12.51,12.51,0,0,1,185.84,35.55Zm-13.3,4.69a3.86,3.86,0,0,0,3.14-1.39,5.07,5.07,0,0,0,1-3.3,5.17,5.17,0,0,0-1-3.34,3.87,3.87,0,0,0-3.14-1.4,3.78,3.78,0,0,0-3.1,1.34,5.22,5.22,0,0,0-1.1,3.4,5.08,5.08,0,0,0,1.1,3.37A3.8,3.8,0,0,0,172.54,40.24Z"/><path class="cls-3" d="M201.51,47.94V23.06h8.93V39.87h8.7v8.07Z"/><path class="cls-3" d="M222.07,47.94V23.06h9.09V47.94Z"/><path class="cls-3" d="M236,47.94V23.06h8.77l7.73,13a28.24,28.24,0,0,1-.29-4.67V23.06h8.63V47.94H252L244.34,35a23,23,0,0,1,.27,3.94v9Z"/><path class="cls-3" d="M265.38,47.94V23.06h8.76V33.67l5.68-10.61h10.12l-7.51,12.25L291,47.94H280.16l-6-10.4v10.4Z"/><path class="cls-3" d="M149.42,70.72a3.29,3.29,0,0,1-.26,1.33,2.7,2.7,0,0,1-.72,1,3.21,3.21,0,0,1-1.08.62,4.09,4.09,0,0,1-1.34.21,3.43,3.43,0,0,1-2.6-.93,4.69,4.69,0,0,1-1.16-2.56l1.85-.54a4.71,4.71,0,0,0,.18.81,2.7,2.7,0,0,0,.36.72,1.68,1.68,0,0,0,.55.51,1.61,1.61,0,0,0,.82.2,1.31,1.31,0,0,0,1.41-1.42,1.77,1.77,0,0,0-.35-1,5.1,5.1,0,0,0-.89-.92c-.36-.3-.74-.59-1.15-.88a8.9,8.9,0,0,1-1.16-1,5.08,5.08,0,0,1-.89-1.18,3,3,0,0,1-.35-1.49,3.23,3.23,0,0,1,.24-1.27,2.84,2.84,0,0,1,.7-1,3.08,3.08,0,0,1,1-.61,3.72,3.72,0,0,1,1.27-.21,3.33,3.33,0,0,1,1.31.23,2.89,2.89,0,0,1,1,.65,3.55,3.55,0,0,1,.72,1,5.38,5.38,0,0,1,.46,1.24l-1.84.54a5.27,5.27,0,0,0-.21-.64,2.23,2.23,0,0,0-.32-.59,1.65,1.65,0,0,0-.47-.44,1.12,1.12,0,0,0-.64-.18,1.19,1.19,0,0,0-.89.37,1.22,1.22,0,0,0-.36.9,1.63,1.63,0,0,0,.36,1,4.68,4.68,0,0,0,.89.89c.36.29.75.58,1.16.88a10.74,10.74,0,0,1,1.15,1,4.67,4.67,0,0,1,.89,1.22A3.33,3.33,0,0,1,149.42,70.72Z"/><path class="cls-3" d="M154.43,73.7V66.94c0-.13,0-.26,0-.38a1,1,0,0,0-.07-.35.64.64,0,0,0-.21-.25.61.61,0,0,0-.38-.1,1.22,1.22,0,0,0-.79.3,3.86,3.86,0,0,0-.6.62V73.7h-1.75V61.3h1.75v4.35a5.38,5.38,0,0,1,1-.92,2.18,2.18,0,0,1,1.28-.38,1.37,1.37,0,0,1,.77.19,1.32,1.32,0,0,1,.46.48,1.76,1.76,0,0,1,.22.68,5.12,5.12,0,0,1,.06.78V73.7Z"/><path class="cls-3" d="M163.39,70.52a9.16,9.16,0,0,1-.11,1.41,2.17,2.17,0,0,1-.64,1.22,2.21,2.21,0,0,1-1,.58,4.33,4.33,0,0,1-1.13.15,3.77,3.77,0,0,1-1.13-.16,2.33,2.33,0,0,1-1-.57,1.93,1.93,0,0,1-.64-1.21,11.16,11.16,0,0,1-.09-1.42V67.65c0-.23,0-.47,0-.7a4.06,4.06,0,0,1,.08-.69,3,3,0,0,1,.22-.64,2.09,2.09,0,0,1,.42-.58,2.36,2.36,0,0,1,1-.6,4.11,4.11,0,0,1,2.27,0,2.32,2.32,0,0,1,1,.6,2.14,2.14,0,0,1,.43.57,2.6,2.6,0,0,1,.21.65,4.08,4.08,0,0,1,.09.69c0,.23,0,.47,0,.7Zm-1.74-3c0-.2,0-.41,0-.61a2.13,2.13,0,0,0-.15-.54,1,1,0,0,0-.34-.39,1.05,1.05,0,0,0-.59-.15A.94.94,0,0,0,160,66a.91.91,0,0,0-.32.4,1.49,1.49,0,0,0-.15.53,4,4,0,0,0,0,.6v3.07a3.9,3.9,0,0,0,0,.59,1.54,1.54,0,0,0,.15.54,1,1,0,0,0,.32.4,1,1,0,0,0,.59.15,1.05,1.05,0,0,0,.59-.14,1,1,0,0,0,.34-.39,2.21,2.21,0,0,0,.15-.55q0-.3,0-.6Z"/><path class="cls-3" d="M168.48,66.21a2.72,2.72,0,0,0-.42,0,1.45,1.45,0,0,0-.76.17,1,1,0,0,0-.41.44,1.83,1.83,0,0,0-.17.64c0,.23,0,.48,0,.73V73.7h-1.75V64.46h1.75v1.6a3.42,3.42,0,0,1,.79-1.27,1.93,1.93,0,0,1,1.4-.44v2A1.49,1.49,0,0,0,168.48,66.21Z"/><path class="cls-3" d="M173.55,73.79a3.69,3.69,0,0,1-.58,0,3.88,3.88,0,0,1-1-.13,1.64,1.64,0,0,1-.86-.55,1.62,1.62,0,0,1-.4-1c0-.37,0-.73,0-1.06V66h-1.31V64.46h1.31V61.93h1.76v2.53H174V66H172.4v4.91a1.92,1.92,0,0,0,.21,1,.92.92,0,0,0,.87.36,1.55,1.55,0,0,0,.33,0,1.58,1.58,0,0,0,.31-.08V73.7Z"/><path class="cls-3" d="M180.69,70.84a6.28,6.28,0,0,1-.11,1.17,2.11,2.11,0,0,1-.53,1,2,2,0,0,1-1,.66,4,4,0,0,1-1.2.17,3.46,3.46,0,0,1-1.43-.25,2,2,0,0,1-.88-.7,2.78,2.78,0,0,1-.46-1.08,6.93,6.93,0,0,1-.13-1.42V67.65a9.1,9.1,0,0,1,.1-1.39,2.2,2.2,0,0,1,.64-1.22,2.6,2.6,0,0,1,1-.59,3.58,3.58,0,0,1,1.12-.17,3.64,3.64,0,0,1,1.2.19,2.37,2.37,0,0,1,1,.66,2,2,0,0,1,.4.6,5.25,5.25,0,0,1,.22.67,3.38,3.38,0,0,1,.08.72c0,.25,0,.49,0,.73v1.52h-4v.84c0,.22,0,.46,0,.71a2.35,2.35,0,0,0,.12.67,1.2,1.2,0,0,0,.35.51,1.06,1.06,0,0,0,.71.2,1,1,0,0,0,.62-.16,1,1,0,0,0,.33-.43,2,2,0,0,0,.13-.57c0-.21,0-.42,0-.63h1.74Zm-1.75-3.49a5.32,5.32,0,0,0,0-.6,1.29,1.29,0,0,0-.17-.5.93.93,0,0,0-.35-.33,1.28,1.28,0,0,0-.6-.12,1.07,1.07,0,0,0-.57.13.8.8,0,0,0-.34.34,1.29,1.29,0,0,0-.16.49,3.81,3.81,0,0,0,0,.59v.5h2.27Z"/><path class="cls-3" d="M186.05,73.7V66.94c0-.13,0-.26,0-.38a1.05,1.05,0,0,0-.08-.35.55.55,0,0,0-.2-.25.63.63,0,0,0-.39-.1,1.24,1.24,0,0,0-.79.3,3.39,3.39,0,0,0-.59.62V73.7h-1.76V64.46H184v1.19a5.33,5.33,0,0,1,1-.92,2.21,2.21,0,0,1,1.29-.38,1.34,1.34,0,0,1,1.23.67,1.94,1.94,0,0,1,.22.68,6.81,6.81,0,0,1,.05.78V73.7Z"/><path class="cls-3" d="M194.18,73.7V61.3h1.92V71.93h3.81V73.7Z"/><path class="cls-3" d="M201,63.1V61.3h1.75v1.8Zm0,10.6V64.46h1.75V73.7Z"/><path class="cls-3" d="M208.11,73.7V66.94c0-.13,0-.26,0-.38a1.05,1.05,0,0,0-.08-.35.62.62,0,0,0-.2-.25.63.63,0,0,0-.39-.1,1.24,1.24,0,0,0-.79.3,3.86,3.86,0,0,0-.6.62V73.7h-1.75V64.46H206v1.19a5.71,5.71,0,0,1,1-.92,2.21,2.21,0,0,1,1.29-.38,1.34,1.34,0,0,1,1.23.67,1.94,1.94,0,0,1,.22.68,6.81,6.81,0,0,1,.05.78V73.7Z"/><path class="cls-3" d="M215.46,73.7l-1.28-4.31-1,1.56V73.7h-1.75V61.3h1.75v6.86l2.08-3.7h2l-1.88,3,2,6.23Z"/><path class="cls-3" d="M226.69,63.07V73.7h-1.92V63.07h-2.4V61.3h6.73v1.77Z"/><path class="cls-3" d="M235.63,70.52a9.18,9.18,0,0,1-.1,1.41,2.17,2.17,0,0,1-.64,1.22,2.25,2.25,0,0,1-1,.58,4.22,4.22,0,0,1-1.13.15,3.86,3.86,0,0,1-1.13-.16,2.47,2.47,0,0,1-1-.57,2,2,0,0,1-.63-1.21,11.16,11.16,0,0,1-.09-1.42V67.65c0-.23,0-.47,0-.7a3.25,3.25,0,0,1,.08-.69,3,3,0,0,1,.22-.64,2.27,2.27,0,0,1,.41-.58,2.39,2.39,0,0,1,1-.6,4.07,4.07,0,0,1,2.26,0,2.42,2.42,0,0,1,1,.6,1.91,1.91,0,0,1,.42.57,3.11,3.11,0,0,1,.22.65q.06.34.09.69c0,.23,0,.47,0,.7Zm-1.73-3a4.17,4.17,0,0,0,0-.61,1.54,1.54,0,0,0-.15-.54.89.89,0,0,0-.33-.39,1.07,1.07,0,0,0-.6-.15.91.91,0,0,0-.58.16.93.93,0,0,0-.33.4,2.05,2.05,0,0,0-.15.53c0,.2,0,.4,0,.6v3.07a5.85,5.85,0,0,0,0,.59,2.13,2.13,0,0,0,.15.54,1,1,0,0,0,.33.4,1,1,0,0,0,.58.15,1.07,1.07,0,0,0,.6-.14.89.89,0,0,0,.33-.39,1.6,1.6,0,0,0,.15-.55,4,4,0,0,0,0-.6Z"/><path class="cls-3" d="M242.79,70.52a10.63,10.63,0,0,1-.1,1.41,2.19,2.19,0,0,1-.65,1.22,2.21,2.21,0,0,1-1,.58,4.28,4.28,0,0,1-1.13.15,3.81,3.81,0,0,1-1.13-.16,2.4,2.4,0,0,1-1-.57,2,2,0,0,1-.64-1.21,11.16,11.16,0,0,1-.09-1.42V67.65c0-.23,0-.47,0-.7a5.4,5.4,0,0,1,.08-.69,3.07,3.07,0,0,1,.23-.64,2,2,0,0,1,.41-.58,2.33,2.33,0,0,1,1-.6,3.84,3.84,0,0,1,1.12-.16,3.88,3.88,0,0,1,1.14.16,2.32,2.32,0,0,1,1,.6,1.79,1.79,0,0,1,.43.57,3.11,3.11,0,0,1,.22.65,5.4,5.4,0,0,1,.08.69c0,.23,0,.47,0,.7Zm-1.74-3c0-.2,0-.41,0-.61a2.13,2.13,0,0,0-.15-.54,1,1,0,0,0-.34-.39,1,1,0,0,0-.59-.15.94.94,0,0,0-.59.16.91.91,0,0,0-.32.4,2.05,2.05,0,0,0-.15.53,4,4,0,0,0,0,.6v3.07a3.9,3.9,0,0,0,0,.59,2.13,2.13,0,0,0,.15.54,1,1,0,0,0,.32.4,1,1,0,0,0,.59.15,1,1,0,0,0,.59-.14,1,1,0,0,0,.34-.39,2.21,2.21,0,0,0,.15-.55q0-.3,0-.6Z"/><path class="cls-3" d="M244.33,73.7V61.3h1.76V73.7Z"/></g></g></svg>